<?xml version="1.0" encoding="UTF-8" standalone="no"?>
<svg width="135px" height="135px" viewBox="0 0 135 135" version="1.1" xmlns="http://www.w3.org/2000/svg" xmlns:xlink="http://www.w3.org/1999/xlink">
    <!-- Generator: Sketch 49.2 (51160) - http://www.bohemiancoding.com/sketch -->
    <title>icon</title>
    <desc>Created with Sketch.</desc>
    <defs></defs>
    <g id="Page-1" stroke="none" stroke-width="1" fill="none" fill-rule="evenodd">
        <g id="icon">
            <rect id="Rectangle-10-Copy" fill="#000000" x="0" y="0" width="135" height="135"></rect>
            <path d="M65.36,62.405 L66.185,59.38 C66.7716696,57.2533227 67.5966613,55.2733425 68.66,53.44 C69.7233386,51.6066575 70.9333265,50.0025069 72.29,48.6275 C73.6466734,47.2524931 75.1133255,46.1708373 76.69,45.3825 C78.2666745,44.5941627 79.8433254,44.2 81.42,44.2 C82.3733381,44.2 83.1799967,44.3374986 83.84,44.6125 C84.5000033,44.8875014 85.0499978,45.2358312 85.49,45.6575 C85.9300022,46.0791688 86.2508323,46.5374975 86.4525,47.0325 C86.6541677,47.5275025 86.755,47.9949978 86.755,48.435 C86.755,49.0583365 86.5808351,49.6816635 86.2325,50.305 C85.8841649,50.9283364 85.2333381,51.24 84.28,51.24 C83.4733293,51.24 82.8958351,51.0841682 82.5475,50.7725 C82.1991649,50.4608318 82.025,50.1033353 82.025,49.7 C82.025,49.3333315 82.0983326,49.0125014 82.245,48.7375 C82.3916674,48.4624986 82.5474992,48.2058345 82.7125,47.9675 C82.8775008,47.7291655 83.024166,47.5000011 83.1525,47.28 C83.280834,47.0599989 83.345,46.8033348 83.345,46.51 C83.345,45.8866636 83.1341688,45.4741677 82.7125,45.2725 C82.2908312,45.0708323 81.8050027,44.97 81.255,44.97 C79.6049917,44.97 78.1566729,45.4833282 76.91,46.51 C75.6633271,47.5366718 74.6000044,48.7649928 73.72,50.195 C72.8399956,51.6250072 72.1250028,53.0824926 71.575,54.5675 C71.0249972,56.0525074 70.6216679,57.2716619 70.365,58.225 L69.21,62.405 L75.975,62.405 L75.755,63.175 L68.99,63.175 L64.095,81.82 C63.4716636,84.1666784 62.6833381,86.439989 61.73,88.64 C60.7766619,90.840011 59.6858395,92.7833249 58.4575,94.47 C57.2291605,96.1566751 55.8908406,97.5041616 54.4425,98.5125 C52.9941594,99.5208384 51.4633414,100.025 49.85,100.025 C49.3733309,100.025 48.8691693,99.9700005 48.3375,99.86 C47.8058307,99.7499994 47.3200022,99.5575014 46.88,99.2825 C46.4399978,99.0074986 46.0733348,98.6408356 45.78,98.1825 C45.4866652,97.7241644 45.34,97.128337 45.34,96.395 C45.34,95.6983298 45.5508312,95.0933359 45.9725,94.58 C46.3941688,94.0666641 47.0449956,93.81 47.925,93.81 C48.4016691,93.81 48.7866652,93.9016657 49.08,94.085 C49.3733348,94.2683342 49.52,94.6533304 49.52,95.24 C49.52,95.6433353 49.4283343,96.0558312 49.245,96.4775 C49.0616657,96.8991688 48.97,97.3666641 48.97,97.88 C48.97,98.356669 49.1258318,98.7049989 49.4375,98.925 C49.7491682,99.1450011 50.1433309,99.255 50.62,99.255 C52.1600077,99.255 53.6358263,98.2008439 55.0475,96.0925 C56.4591737,93.9841561 57.8066603,90.5833568 59.09,85.89 L65.14,63.175 L59.915,63.175 L60.135,62.405 L65.36,62.405 Z" id="f-copy" fill="#FFFFFF"></path>
        </g>
    </g>
</svg>